<svg version="1.1" id="Layer_1" xmlns="http://www.w3.org/2000/svg" xmlns:xlink="http://www.w3.org/1999/xlink" viewBox="0 0 800 762">

<polygon fill="#F8340D" points="800,426.2 800,0 0,0 0,762 615.6,762 "></polygon>
<polygon fill="#FFFFFF" points="238.7,278 139.7,98 94.7,98 94.7,358 148.7,358 148.8,219.1 225.2,358 251.2,358 327.3,219.2 
	327.9,358 382.7,358 382.7,98 337.7,98 "></polygon>
<polygon fill="#FFFFFF" points="561.9,278 462.9,98 417.9,98 417.9,358 471.9,358 472,219.1 548.4,358 574.4,358 650.5,219.2 
	651.1,358 705.9,358 705.9,98 660.9,98 "></polygon>
<polygon fill="#FFFFFF" points="642.1,404.3 576,524.9 510.1,404.3 446.1,404.3 544.2,582.9 499.6,664.3 563.4,664.3 706.1,404.3 "></polygon>
<path fill="#FFFFFF" d="M445,518.1l-0.4-7.6h-145v50.3h91.2c-9.2,32.4-35.5,52.1-70.6,52.1c-44.6,0-78.2-33.8-78.2-78.7
	c0-44.1,33.4-78.7,76.1-78.7c19,0,43.4,5,60.8,26h59.7l-1.1-2.9c-17.1-45.9-62.9-74.4-119.4-74.4c-73.1,0-130.4,57.1-130.4,130
	s57.7,130,131.5,130c35.7,0,68.1-13.3,91.2-37.5c22.8-23.8,35.3-56.5,35.3-92.2c0-3.9-0.3-8.7-0.6-14.2L445,518.1z"></path>
</svg>